<?xml version="1.0" standalone="no"?>
<!DOCTYPE svg PUBLIC "-//W3C//DTD SVG 20010904//EN"
 "http://www.w3.org/TR/2001/REC-SVG-20010904/DTD/svg10.dtd">
<svg version="1.0" xmlns="http://www.w3.org/2000/svg"
 width="645.000000pt" height="645.000000pt" viewBox="0 0 645.000000 645.000000"
 preserveAspectRatio="xMidYMid meet">
<metadata>
Created by potrace 1.11, written by Peter Selinger 2001-2013
</metadata>
<g transform="translate(0.000000,645.000000) scale(0.100000,-0.100000)"
fill="#000000" stroke="none">
<path d="M123 6428 c-44 -32 -93 -108 -109 -170 -12 -44 -14 -546 -14 -3028 0
-2614 2 -2980 15 -3018 28 -81 84 -150 150 -185 l40 -22 3035 0 3035 0 40 21
c46 25 90 66 116 109 18 29 19 130 19 3106 l0 3076 -26 38 c-29 43 -39 54 -74
78 -23 16 -216 17 -3110 17 l-3085 0 -32 -22z"/>
</g>
</svg>
