<?xml version="1.0" encoding="UTF-8" standalone="no"?>
<!-- Created with Inkscape (http://www.inkscape.org/) -->

<svg
   xmlns:dc="http://purl.org/dc/elements/1.1/"
   xmlns:cc="http://creativecommons.org/ns#"
   xmlns:rdf="http://www.w3.org/1999/02/22-rdf-syntax-ns#"
   xmlns:svg="http://www.w3.org/2000/svg"
   xmlns="http://www.w3.org/2000/svg"
   xmlns:sodipodi="http://sodipodi.sourceforge.net/DTD/sodipodi-0.dtd"
   xmlns:inkscape="http://www.inkscape.org/namespaces/inkscape"
   width="210mm"
   height="297mm"
   viewBox="0 0 744.09448819 1052.3622047"
   id="svg4186"
   version="1.1"
   inkscape:version="0.91 r13725"
   sodipodi:docname="favicon.svg">
  <defs
     id="defs4188" />
  <sodipodi:namedview
     id="base"
     pagecolor="#ffffff"
     bordercolor="#666666"
     borderopacity="1.0"
     inkscape:pageopacity="0.0"
     inkscape:pageshadow="2"
     inkscape:zoom="0.78066406"
     inkscape:cx="352.58319"
     inkscape:cy="520"
     inkscape:document-units="px"
     inkscape:current-layer="layer1"
     showgrid="false"
     inkscape:window-width="688"
     inkscape:window-height="724"
     inkscape:window-x="12"
     inkscape:window-y="28"
     inkscape:window-maximized="0" />
  <metadata
     id="metadata4191">
    <rdf:RDF>
      <cc:Work
         rdf:about="">
        <dc:format>image/svg+xml</dc:format>
        <dc:type
           rdf:resource="http://purl.org/dc/dcmitype/StillImage" />
        <dc:title></dc:title>
      </cc:Work>
    </rdf:RDF>
  </metadata>
  <g
     inkscape:label="Layer 1"
     inkscape:groupmode="layer"
     id="layer1">
    <g
       transform="translate(-29.361583,27.008183)"
       id="g4169">
      <rect
         ry="12.080414"
         rx="10.40699"
         y="276.64999"
         x="246.50194"
         height="260"
         width="260"
         id="rect4154"
         style="opacity:1;fill:#041228;fill-opacity:1;stroke:#000000;stroke-width:1.25;stroke-miterlimit:4;stroke-dasharray:none;stroke-opacity:1" />
      <path
         style="fill:#ffffff;fill-opacity:1"
         sodipodi:nodetypes="cccccccccccccccccccccccccssssssccscccccccccccccccccccc"
         inkscape:connector-curvature="0"
         id="path31"
         d="m 387.61681,389.4705 c 3.17944,-6.9017 8.29755,-11.47699 14.73397,-14.50133 2.63661,-1.24075 5.42831,-2.09377 8.29755,-2.86924 4.18755,-1.16321 7.90982,-0.23264 11.08925,2.86924 3.79982,3.72227 6.20378,8.06491 7.13435,13.26058 1.08566,5.97113 1.3183,11.94226 0.23264,17.99095 -0.62038,3.79981 -0.93057,7.59962 -2.17132,11.24434 -0.31019,1.00811 -0.54283,2.17132 0.38773,3.02434 0.38774,0 0.85302,0.1551 1.08566,0 2.40397,-1.62849 4.88548,-3.25698 7.21189,-4.96302 14.02724,-9.50011 26.5308,-19.85435 37.53285,-31.79435 2.32641,-2.55906 4.57528,-5.19566 7.44453,-8.45265 1.08566,-0.54283 2.86925,-1.93868 5.4283,-1.62849 0.31019,2.55906 -0.15509,4.88548 -0.93056,7.0568 -1.39585,4.18755 -3.25699,8.14245 -6.43642,11.32189 -12.13904,13.55729 -27.15637,25.81217 -40.40209,35.36152 -0.77547,0.62038 -1.24076,1.62849 -2.01623,2.7917 1.08566,0.62038 1.78359,1.24076 2.55906,1.55095 6.35887,2.24887 10.15868,7.21189 12.56264,13.02793 2.48151,5.89358 4.49774,12.01981 5.50586,18.37868 0.0775,0.69793 0.31018,1.4734 0.31018,2.17132 0.46529,5.11812 0.62038,10.23624 1.31831,15.2768 0.93056,7.21189 1.39585,14.50133 3.79981,21.55813 1.4734,4.34264 4.03245,7.75472 6.66906,11.16679 0.93057,1.16321 2.01623,2.09378 3.10189,3.10189 4.47943,3.90933 9.64589,4.81503 14.57887,3.64472 4.47914,-1.06264 5.96845,-7.29827 10.15868,-9.92604 0.79382,-0.49782 1.83442,0.6379 2.24887,1.24075 0.43933,0.63902 0.57955,1.79184 0.38774,2.55906 -0.58395,2.33582 -1.97933,4.18422 -3.79981,5.89359 -4.43698,4.16615 -9.58347,9.63333 -16.82775,10.77906 -5.30412,0.83888 -10.58101,0.19546 -14.88906,-2.48151 -5.66094,-3.64472 -11.50061,-8.29755 -14.99023,-14.03604 -5.60865,-8.92756 -7.7194,-16.5428 -8.11884,-30.39851 -0.3333,-11.56191 0.92236,-26.33853 -1.78358,-39.16134 -0.69793,-3.33453 -2.40396,-5.66094 -5.4283,-7.13434 -0.46529,-0.23264 -1.00812,-0.46528 -1.39585,-0.62038 l -8.91793,0 c -0.54283,1.00812 -1.16321,1.93868 -1.4734,2.9468 -2.01623,5.66094 -4.18755,11.32189 -5.89359,17.13793 -3.10189,10.54642 -7.36698,20.62756 -11.32189,30.86379 -1.39585,3.56717 -2.94679,7.13434 -4.49774,10.62396 -0.54283,1.16321 -1.3183,2.17132 -2.17132,3.10189 -1.00811,1.16321 -2.40396,1.70604 -3.95491,1.4734 -2.55905,-0.31019 -5.04056,-0.62038 -7.59962,-0.93057 -2.24887,-0.23264 -3.72227,-1.55094 -4.2651,-3.64472 -0.93056,-3.10189 -0.77547,-6.12623 0.46529,-9.15057 6.7189,-17.36871 12.98213,-33.76464 19.77453,-49.86285 2.09378,-4.88547 4.49774,-9.61585 6.51397,-14.50132 4.91732,-12.53434 9.53106,-26.81729 8.91793,-39.31644 -2.96026,-5.95414 -6.841,-7.30813 -12.56265,-3.56717 -3.17944,2.32642 -6.66906,4.49774 -8.99548,7.98736 -1.3183,2.01623 -3.02434,3.64472 -5.50585,3.95491 -2.24887,-1.55094 -2.24887,-1.55094 -3.10189,-4.42019 z" />
      <path
         style="fill:#ffffff;fill-opacity:1"
         sodipodi:nodetypes="cccccccccccccccccccccccccccccccccccccccccccccccccccccc"
         inkscape:connector-curvature="0"
         id="path29"
         d="m 336.75055,377.66307 c -1.1967,2.25989 -0.65302,4.5639 0.3596,6.70832 0.91906,2.07727 2.01205,4.20849 3.30649,6.05901 11.19797,18.62822 20.5387,29.20961 36.11955,42.0141 5.98702,4.79322 13.07941,6.26868 20.577,6.19202 5.03397,-0.002 8.78783,-2.26939 10.98089,-7.00383 0.36331,-0.80247 0.9809,-1.56419 1.38382,-2.12558 1.76791,-0.29052 2.63641,0.47458 2.76733,1.77354 0.35655,2.1697 -0.0366,4.29754 -1.23213,6.06207 -2.25682,3.34192 -4.60721,6.61668 -7.05116,9.82429 -1.36949,1.71058 -3.29925,2.52287 -5.42934,3.12049 -7.67601,2.00416 -13.87463,1.94989 -21.59445,-0.33028 -1.64568,-0.47234 -3.25061,-1.19895 -4.78839,-2.01914 -9.45041,-5.39408 -16.65028,-12.10308 -22.07001,-20.80196 -3.89542,-6.12728 -7.10722,-12.61449 -10.64046,-19.04888 -3.5129,-5.1985 -5.83576,-11.09747 -11.25611,-13.25318 -1.06014,1.08203 -2.07953,1.90978 -2.81822,2.939 -3.74742,5.31998 -7.30771,10.77427 -11.04192,16.17462 -13.22695,19.68915 -49.42041,29.0372 -57.55022,3.34999 -2.07356,-6.59172 -2.17889,-13.25931 -0.46348,-19.89596 2.20207,-8.69733 7.17148,-15.62112 14.18609,-21.14788 16.50118,-12.61312 25.78384,-13.31318 44.67338,-10.39471 1.27142,0.20371 2.66394,0.13994 3.90895,0.18294 3.80894,-2.93675 5.35798,-7.07018 6.8795,-10.86898 -11.67867,-12.154 -20.8318,-15.91145 -23.33853,-34.0458 -0.23661,-1.94183 0.11578,-3.81538 2.16776,-5.39053 0.6957,0.2158 1.76678,0.20485 2.42173,0.67492 2.56588,2.05424 4.76956,4.41558 6.18172,7.4847 1.03904,2.30514 2.14524,4.51672 3.33178,6.71508 3.0126,5.77718 7.82289,9.93848 13.0361,13.53839 0.56139,0.40292 1.4046,0.51194 1.84601,0.68699 1.99579,-0.41046 2.76201,-1.77434 3.54145,-3.05784 10.30173,-15.54438 21.01617,-35.34472 28.93695,-43.37894 8.76194,-9.17619 25.00292,-17.46913 34.8552,-8.36866 6.53667,6.10903 7.23476,12.75552 7.5438,20.79569 -0.73691,9.44679 -5.61085,18.89466 -10.69021,26.35047 -6.28912,7.0582 -16.11648,12.95291 -23.6263,15.93178 -5.66815,2.16939 -11.48044,2.95946 -17.3731,3.76273 -1.52682,0.2509 -3.06685,0.42148 -4.48692,0.81982 -0.87076,0.22558 -1.68868,0.77267 -2.9084,1.38576 m -57.68516,15.58651 c -16.53072,6.64375 -29.3416,19.72214 -24.97485,37.85862 0.94208,3.72406 2.80018,4.98678 6.71025,4.67437 l 0.56251,-0.0924 c 21.75648,-4.58122 29.8491,-19.66776 39.79497,-37.57053 4.94766,-11.41259 -17.9934,-5.61155 -22.09288,-4.87002 z m 64.5141,-27.76764 c 1.06995,0.4844 1.55099,0.90054 2.05955,0.98202 15.93824,0.8917 33.33019,-12.47902 39.2405,-23.36688 4.19447,-7.62174 4.4932,-15.34607 -0.13527,-22.92095 -0.66704,-1.0458 -1.78981,-1.85164 -2.68472,-2.77747 -1.03147,0.25199 -1.84826,0.30372 -2.45152,0.65045 -8.14851,4.79598 -14.03347,11.09054 -19.09558,19.39625 -3.73203,6.21107 -12.87182,21.60077 -16.93296,28.03658 z" />
    </g>
  </g>
</svg>
