<?xml version="1.0" encoding="UTF-8" standalone="no"?>
<!-- Generator: Adobe Illustrator 21.0.2, SVG Export Plug-In . SVG Version: 6.00 Build 0)  -->

<svg
   xmlns:dc="http://purl.org/dc/elements/1.1/"
   xmlns:cc="http://creativecommons.org/ns#"
   xmlns:rdf="http://www.w3.org/1999/02/22-rdf-syntax-ns#"
   xmlns:svg="http://www.w3.org/2000/svg"
   xmlns="http://www.w3.org/2000/svg"
   xmlns:sodipodi="http://sodipodi.sourceforge.net/DTD/sodipodi-0.dtd"
   xmlns:inkscape="http://www.inkscape.org/namespaces/inkscape"
   version="1.1"
   id="Layer_1"
   x="0px"
   y="0px"
   viewBox="0 0 1016.2532 207.09251"
   xml:space="preserve"
   inkscape:version="0.91 r13725"
   sodipodi:docname="handletter.svg"
   width="1016.2532"
   height="207.09251"><metadata
     id="metadata75"><rdf:RDF><cc:Work
         rdf:about=""><dc:format>image/svg+xml</dc:format><dc:type
           rdf:resource="http://purl.org/dc/dcmitype/StillImage" /><dc:title></dc:title></cc:Work></rdf:RDF></metadata><defs
     id="defs73" /><sodipodi:namedview
     pagecolor="#ffffff"
     bordercolor="#666666"
     borderopacity="1"
     objecttolerance="10"
     gridtolerance="10"
     guidetolerance="10"
     inkscape:pageopacity="0"
     inkscape:pageshadow="2"
     inkscape:window-width="1366"
     inkscape:window-height="752"
     id="namedview71"
     showgrid="false"
     inkscape:zoom="0.81946615"
     inkscape:cx="577.881"
     inkscape:cy="109.2866"
     inkscape:window-x="0"
     inkscape:window-y="16"
     inkscape:window-maximized="0"
     inkscape:current-layer="Layer_1"
     fit-margin-top="0"
     fit-margin-left="0"
     fit-margin-right="0"
     fit-margin-bottom="0" /><style
     type="text/css"
     id="style3">
	.st0{fill:#FFFFFF;}
</style><path
     d="m 997.55317,133.52287 c -17.2664,8.5799 -30.6835,2.69123 -48.5,2.8 -4.1,0 -7.3,-1.4 -8.7,-5.8 -0.4,-1.3 -1.2,-2.4 -1.6,-3.3 -2.3,-0.9 -3.7,0.2 -5,1.2 -9.1265,4.6058 -20.6106,10.57823 -30.1,8.3 -3.2,-0.8 -6.3,-1.9 -9.4,-3 -2.4,-0.9 -4.8,-2 -7.2,-3 -4.2,1.3 -7.7,3.7 -11.4,5.7 -4.2,2.4 -8.7,3.5 -13.5,3.7 -1.2,0.1 -2.4,0 -3.5,0 -10.7,0.6 -18.6,-4.2 -24.7,-12.5 -1.2,-1.6 -2,-3.8 -4.6,-4.6 -5.2,5.6 -12.2,8.5 -19,11.5 -7.1,3.2 -14.7,3.5 -21.7,-0.9 -2,-1.2 -3.9,-2.7 -6.8,-2.9 -2.9,1.1 -6.2,2.4 -9.5,3.6 -3.4,1.3 -6.9,1.4 -10.4,1.5 -9,0.1 -18.4,-9.5 -18.7,-18 -0.5,-12.9 2.26308,-24.347127 10,-35.399997 11.59616,-12.52984 20.76198,-24.47375 45.8,-20.1 3.63281,0.63459 5.8,3.8 9.2,5 3.1,1 6.3,2.3 7.4,5.9 -0.6,3.8 -5,19 -7.3,24.3 -2.8,6.499997 -5.1,13.199997 -6.1,20.299997 -0.1,0.7 -0.3,1.4 -0.4,2.1 -0.5,3.1 0.3,5.7 3,7.4 2.7,1.7 5.5,1.4 8,-0.2 6,-3.8 11.4,-8.3 14.7,-15.1 -0.2,-4.3 -0.4,-8.8 -0.7,-13.199997 -0.7,-8.9 1.2,-17.4 3.8,-25.8 3.9,-12.9 9.1,-25.3 15.8,-37 5.5,-9.5 12.8,-17.5 21,-24.6 5.91504,-5.02394 9.50704,-5.51347 16.3,-4.4 5.8,0.9 10.2,5.3 11,11.2 0.4,2.6 0.2,5.2 -0.8,7.7 -4.493,11.36973 -9.88598,23.07373 -16.4,32.7 -3,4.5 -6.5,8.7 -9.2,13.4 -2.1,3.6 -5.3,6.6 -7.9,10 -1.2,1.5 -2.2,3.1 -3.3,4.6 -6.83995,10.03632 -5.35219,30.827567 0.4,38.099997 5.9,6.5 13.6,6.9 19.9,1 1.4,-1.3 2.5,-2.8 3.5,-3.9 0.7,-3.3 -0.1,-6.1 -0.8,-8.8 -2.4,-10.6 -0.3,-20.699997 3.3,-30.499997 2.9,-8.1 8.9,-13.7 16.2,-18.1 4.1,-2.5 8.6,-2.4 13,-1.6 1.1,0.2 2.3,0.9 3,1.7 2.4,2.6 4.7,5.4 5.5,9 1.9182,11.39957 -3.1745,20.4109 -8.6,29.699997 -1.8,3.1 -3.6,6.1 -5.5,9 -2.4,3.7 -2.8,7.4 -0.5,11.3 1.6,2.7 4,4.1 7.1,3.8 2.1,-0.2 4.2,-0.7 6.1,-1.7 6.5,-3.3 12.7,-7.2 17.6,-12.9 2.1,-2.4 3.8,-4.9 4.3,-8 1,-5.999997 1.9,-12.099997 2.8,-18.099997 2.5108,-21.17214 8.2777,-39.13306 14.4,-57.5 5.7459,-12.96661 16.028,-25.51672 29.5,-26.1 10.3,-0.3 15.70003,6.3 15.20003,16.1 -1.9093,11.36791 -6.85933,24.03472 -11.50003,31.8 -4.909,8.05623 -20.8203,29.43997 -20.5472,35.23144 5.3463,-3.27207 8.8996,-4.87371 11.6472,-7.13144 4.5,-3.6 9.9,-4.4 15.2,-5 7.34673,0.28734 15.53093,0.84682 17.40003,13.2 1.8691,12.35318 -0.9336,37.720097 -18.20003,46.299997 z m -28.4,-33.799997 c -2.7396,9.851847 -5.0747,18.530377 -1.5,28.199997 7.7,0.1 13.3413,0.099 18.5943,-8.3 5.253,-8.39898 13.6287,-20.714577 13.1057,-33.099997 -0.2,-4.1 -3.6,-6.3 -7.5,-5 -1.7,0.6 -3.4,1.6 -4.9,2.8 -5.8,4.8 -11.7,10 -17.8,15.4 z m -182.8,-22.9 c -6.28288,-0.41886 -9.4,2.8 -13,7 -5.8,6.8 -9.4,14.6 -11.3,23.199997 -1.1,5 -0.4,9.8 1.7,14.5 2,4.4 6,5.6 9.8,2.8 8.99274,-9.00009 12.35961,-24.575647 17.7,-36.299997 0.8,-1.7 1.3,-3.4 2.1,-5.4 -2.3,-2.1 -3.73159,-5.58211 -7,-5.8 z m 93.5,-57.9 c -3.4,0.6 -5.4,3.1 -6.9,5.7 -8.31863,14.47264 -14.02424,32.2572 -16,47 0,0.3 0.4,0.7 0.7,1 0.2,0 0.5,0 0.6,-0.2 13.03566,-17.34315 20.00584,-28.66027 24.3,-48.5 0.4,-1.9 -0.1,-3.7 -2.7,-5 z m 98.9,3.4 c -3.9871,11.48729 -4.8537,22.79533 -5.5,33.9 0,0.5 0.5,1.1 1.1,2.3 1.2,-1.7 2.2,-2.9 3,-4.3 5.4996,-10.06974 10.687,-19.02513 14.4,-29 1.996,-7.5279 -10.8656,-6.06437 -13,-2.9 z m -67.1,53.7 c -4.7,-0.7 -6.5,0.2 -6.7,3.7 -0.3,4.7 -0.1,9.3 -0.1,14 0,1 0.4,1.8 1.8,1.6 3.2,-3.1 5,-7.1 6,-11.5 0.5,-2.4 0.9,-5 -1,-7.8 z"
     id="path25"
     inkscape:connector-curvature="0"
     sodipodi:nodetypes="zcccccccccccccccccccscccccscccccccccccccccccccsccccccccccccccccczzcczccccsccccccscccccccccccccccsccc" /><path
     d="m 476.25317,145.22287 c 4.78705,-1.11327 6.7,-6 9.6,-8.5 3.2,-0.5 4.8,0.6 5.7,2.9 -0.1,0.6 -0.1,1.4 -0.3,2 -2.1,5.2 -4.54438,8.77548 -9.5,13 -4.95562,4.22452 -11.77924,2.11219 -19.4,-0.6 -7.62076,-2.71219 -12.7,-10.8 -13.6,-19.7 -0.8,-8.1 0.3,-15.9 4.4,-23.3 0.7466,-3.57516 16.01098,-24.490177 7,-24.599997 -3.8,-0.2 -4.0209,0.51246 -9.4,4.2 -5.3791,3.68754 -15.15049,11.790137 -17.6,19.899997 -1.9,7 -4.5,13.9 -5.8,21.1 -0.6,3.3 -2.4,6.1 -4.7,8.6 -1.2,1.3 -2.6,2.1 -4.9,1.6 -3,-1.8 -4.6,-1.53908 -6.3,-4.93908 -0.9,-1.8 -0.4,-7.36092 -0.1,-9.16092 1.5,-7.7 3.9,-15 6.1,-22.5 0.7,-2.5 1.4,-5 1.9,-7.499997 0.2,-0.8 -0.2,-1.7 -0.4,-2.7 -3,2.5 -5.6,5.899997 -7.1,8.999997 -10.05335,17.25608 -14.03136,31.45119 -32.5,36.8 -4.7,1.3 -9.3,1.5 -13.6,-1.4 -1,-0.6 -2.1,-0.9 -3.4,-1.4 -7.73223,4.83807 -16.13298,8.97884 -24.2,10.5 -5.5,1 -10.6,0.2 -15.7,-2.3 -6,-2.9 -8.8,-7.6 -9.7,-13.8 -0.9,-6.2 0.4,-12.2 3.4,-17.8 1.1,-2 2.2,-4.1 3.3,-6.2 -0.6,-1.1 -0.9,-2 -1.4,-2.7 -0.4,-0.5 -1.2,-0.7 -1.7,-1 -0.5,0.3 -1.1,0.4 -1.3,0.7 -4.08525,10.4736 -13.14223,22.54771 -17.6,29.4 -4.45777,6.85229 -8.1,10.3 -14.7,12.4 -2.8,0.9 -5.5,0.8 -8.1,-0.9 -3.5,-2.3 -7.2,-4.4 -11.2,-6.8 -0.9,0.5 -2.2,1 -3.3,1.7 -0.8,0.5 -1.4,1.3 -2.1,1.9 -7,6.3 -14.5,7.2 -24.2,2.2 -3.7,-1.9 -7.1,-4.6 -10.3,-6.7 -6.75114,5.16415 -9.90484,10.96212 -18.84569,13.9 -9.2,2.9 -13.75431,-1.1 -20.75431,-6.3 -1.5,-1.1 -2.7,-2.5 -3.8,-3.6 -2.7,-0.2 -3.7,1.6 -5.2,2.7 -3.5,2.6 -7.2,4.4 -11.6,4.6 -4.9,0.2 -8.8,-1.7 -11.7,-5.5 -3.1,-3.9 -5.5,-8.3 -6.3,-13.3 -2.74491,-20.68792 19.52166,-57.297787 40.4,-50.099997 3.7,1.5 7.3,1.3 11.1,0.9 4,-0.4 7.5,0.4 10,3.9 1.8,2.4 2.7,4.9 2.2,7.9 -0.27091,14.680267 -9.56813,31.419767 -10.6,44.199997 -0.1,1.3 0.7,2.6 0.9,3.6 2.6,1.4 4.7,0.6 6.4,-0.6 2.1,-1.5 4,-3.3 5.8,-5.2 2,-2.3 3.9,-4.8 5.6,-7.3 2.38928,-4.05958 3.28932,-9.23341 3.6,-13.5 1,-11.9 5,-22.999997 9.1,-33.299997 2.2,-2.4 4.4,-3.2 7.1,-3.1 11.94502,8.05508 2.20311,39.106397 2.4,52.799997 0,2.2 0.5,4.2 2.8,5.7 3.1,0.9 5.8,-0.6 7.8,-3.1 2.1,-2.6 3.8,-5.4 5.5,-8.2 7.03528,-12.75082 10.2726,-28.427847 15.6,-40.699997 1.1,-2.6 2.5,-5.2 6.3,-5.4 5.2,2.2 8,6.3 7.1,12.1 -1.83043,12.481567 -2.4364,24.367857 -6.3,35.399997 -1.3,3.6 0,6.4 3.4,9.5 3.50835,-1.69534 5.65037,-4.77679 7.6,-7.7 4,-6.4 7.9,-12.8 11.9,-19.3 3.1,-5.1 4.8,-10.799997 6.3,-16.499997 0.80809,-6.65714 -2.92374,-20.62408 5.3,-22.2 3.1,-0.5 5.5,0.6 7.3,3.3 2.4,3.7 3.7,7.7 2.4,12.1 -1.3,4.6 0.2,8.2 2.8,11.9 1.6,2.299997 3.7,3.499997 6.3,4.299997 2.9,1 5.8,2.1 7.9,5.4 -0.2,1.1 -0.2,2.8 -0.6,4.3 -2.32718,7.09859 -13.05727,21.86288 -7.1,27.6 2.4,2.4 5.3,1.4 7.9,0.3 5.5,-2.3 10.4,-5.5 14.1,-10.6 -1.86407,-13.53496 -1.19727,-29.40824 5.4,-40.399997 4.3,-6.9 10.2,-12.4 17.1,-16.6 3.8,-2.3 7.1,-1.7 10.2,1.6 2.3,2.5 3.8,5.5 4.3,8.8 1.32368,11.87021 -5.16804,28.303497 -11,37.999997 -2,3.4 -4.2,6.7 -6.3,10.2 0.9,0.7 1.4,1.3 2,1.4 6.08276,-0.56892 14.38136,-10.94679 17.5,-15.5 3.6,-6.4 7.3,-12.7 10.6,-19.199997 5.37119,-9.64261 15.1594,-25.74615 27.6,-22.3 6.36006,1.16571 8.16092,3.84782 11.4,8.5 7.89502,-1.91175 15.26527,-6.80135 23.1,-6.1 4.8,0.5 8.4,2.7 10.5,7.3 2.8,5.9 2.7,11.9 1,17.899997 -1.8,6.1 -3.7,12.2 -6.2,18.1 -2.2,5.3 -2.2,10.6 -2,16 -0.2,4.4 2.61295,9.11327 7.4,8 z m -314.5,-5.3 c 3.1,0.9 4.5,-0.5 6,-1.6 5.9,-4.9 10.5,-10.8 13,-18.1 2.5,-7.4 5.1,-14.7 7.6,-21.999997 0.3,-0.9 0.6,-1.8 0.5,-2.7 -0.1,-0.9 -0.6,-1.7 -0.8,-2.3 -0.8,-0.3 -1.2,-0.5 -1.7,-0.5 -0.7,0 -1.4,0 -2.1,0.1 -8,1.8 -13.6,6.8 -16.3,14.299997 -3.3,9.1 -5.2,18.6 -6.7,28.1 -0.2,1.4 0.3,3.1 0.5,4.7 z m 207.74416,-31.42893 c 5.3116,-5.323 12.35452,-13.263467 12.45584,-20.571067 0,-0.8 0.2,-2 -1.4,-2.1 -13.27261,6.91523 -11.05584,15.371067 -11.05584,22.671067 z"
     id="path27"
     inkscape:connector-curvature="0"
     sodipodi:nodetypes="zccczzccczccccsccccccccccsccccczcccccccccccccccccccccccccccccccccccccccccccccccccccccccccccccccczccccscscccccccc" /><path
     d="m 105.25317,106.52287 c -1.9,2.5 -1.7,5.4 -0.9,8.2 0.7,2.7 1.6,5.5 2.8,8 9.85929,24.80131 19.07042,39.48255 35.4,58.1 6.3,7 14.6,10.2 23.7,11.6 6.1,1 11.1,-1 14.7,-6.3 0.6,-0.9 1.5,-1.7 2.1,-2.3 2.2,0 3.1,1.1 3,2.7 0,2.7 -0.9,5.2 -2.7,7.1 -3.4,3.6 -6.9,7.1 -10.5,10.5 -2,1.8 -4.5,2.4 -7.2,2.7 -9.7,0.9 -17.2,-0.4 -26.1,-4.7 -1.9,-0.9 -3.7,-2.1 -5.4,-3.4 -10.37691,-8.41768 -17.76506,-17.9805 -22.6,-29.6 -3.5,-8.2 -6.1,-16.7 -9.1,-25.2 -3.221435,-6.99844 -4.861445,-14.60867 -10.999995,-18.3 -1.5,1.1 -2.9,1.9 -4,3 -5.6,5.7 -11,11.6 -16.6,17.4 -19.94736,21.22344 -65.6639201,25.34368 -70.40000013,-7.4 -1.2,-8.4 0,-16.5 3.40000003,-24.2 4.4,-10.1 11.8000001,-17.499997 21.4000001,-22.799997 22.50577,-11.99753 33.89285,-10.99747 56.2,-3.7 1.5,0.5 3.2,0.7 4.7,1 5.2,-2.8 7.9,-7.5 10.5,-11.8 -11.73087,-17.05228 -22.07345,-23.42767 -21.5,-45.9 0.1,-2.4 0.9,-4.6 3.7,-6.1 0.8,0.4 2.1,0.6 2.8,1.3 2.7,3 4.9,6.3 6,10.3 0.8,3 1.7,5.9 2.7,8.8 2.5,7.6 7.5,13.6 13.099995,19 0.6,0.6 1.6,0.9 2.1,1.2 2.5,-0.1 3.7,-1.6 4.9,-3 15.57761,-16.78372 32.50274,-38.64217 43.7,-46.8 12.44388,-9.37405 33.77415,-16.18867998 43.9,-3.2 6.70402,8.7038 6.22646,16.89628 5,26.7 -2.77391,11.29985 -10.56083,21.77724 -18.2,29.8 -9.02586,7.30007 -22.10729,12.48585 -31.8,14.6 -7.3,1.5 -14.5,1.3 -21.8,1.1 -1.9,0 -3.8,-0.1 -5.6,0.1 -1.1,0.1 -2.2,0.6 -3.8,1.1 m -72.999995,7.4 c -21.35297,4.75864 -39.4798901,18.054737 -37.8,40.899997 0.4,4.7 2.4,6.6 7.2,7 l 0.7,0 c 27.27427,-1.21897 40.08398,-17.88779 55.7,-37.6 8.26745,-12.843367 -20.68506,-10.382227 -25.8,-10.299997 z m 83.699995,-20.8 c 1.2,0.8 1.7,1.4 2.3,1.6 19.13464,4.25402 42.8706,-8.48413 52.2,-20.5 6.6,-8.4 8.5,-17.7 4.4,-27.8 -0.6,-1.4 -1.8,-2.6 -2.7,-3.9 -1.3,0.1 -2.3,0 -3.1,0.3 -10.82841,4.18874 -19.2125,10.64402 -27,19.7 -5.75879,6.78279 -19.89769,23.61045 -26.1,30.6 z"
     id="path29"
     inkscape:connector-curvature="0"
     sodipodi:nodetypes="cccccccccccccccccccccccccccccccccccccccccccccccccccccc" /><path
     d="m 641.95317,23.022873 c 4.1,-8.9 10.7,-14.8 19,-18.7 3.4,-1.6 7,-2.7 10.7,-3.69999998 5.4,-1.5 10.2,-0.3 14.3,3.69999998 4.9,4.8 8,10.4 9.2,17.1 1.4,7.7 1.7,15.4 0.3,23.2 -0.8,4.9 -1.2,9.8 -2.8,14.5 -0.4,1.3 -0.7,2.8 0.5,3.9 0.5,0 1.1,0.2 1.4,0 3.1,-2.1 6.3,-4.2 9.3,-6.4 18.08865,-12.25075 34.21245,-25.60292 48.4,-41 3,-3.3 5.9,-6.7 9.6,-10.9 1.4,-0.7 3.7,-2.5 7,-2.1 0.4,3.3 -0.2,6.3 -1.2,9.1 -1.8,5.4 -4.2,10.5 -8.3,14.6 -15.65374,17.48263 -35.01915,33.28575 -52.1,45.6 -1,0.8 -1.6,2.1 -2.6,3.6 1.4,0.8 2.3,1.6 3.3,2 8.2,2.9 13.1,9.3 16.2,16.8 3.2,7.599997 5.8,15.499997 7.1,23.699997 0.1,0.9 0.4,1.9 0.4,2.8 0.6,6.6 0.8,13.2 1.7,19.7 1.2,9.3 1.8,18.7 4.9,27.8 1.9,5.6 5.2,10 8.6,14.4 1.2,1.5 2.6,2.7 4,4 5.77639,5.04122 12.43874,6.20916 18.8,4.7 5.77601,-1.37031 7.69654,-9.41139 13.1,-12.8 1.02366,-0.64196 2.36554,0.8226 2.9,1.6 0.56653,0.82404 0.74734,2.31064 0.5,3.3 -0.75303,3.01213 -2.55242,5.39571 -4.9,7.6 -5.72165,5.37241 -12.35824,12.42254 -21.7,13.9 -6.83987,1.08177 -13.64461,0.25206 -19.2,-3.2 -7.3,-4.7 -14.83046,-10.7 -19.33046,-18.1 -7.23256,-11.51242 -9.95445,-21.33255 -10.46954,-39.2 -0.42981,-14.90952 1.18941,-33.96451 -2.3,-50.499997 -0.9,-4.3 -3.1,-7.3 -7,-9.2 -0.6,-0.3 -1.3,-0.6 -1.8,-0.8 l -11.5,0 c -0.7,1.3 -1.5,2.5 -1.9,3.8 -2.6,7.3 -5.4,14.599997 -7.6,22.099997 -4,13.6 -9.5,26.6 -14.6,39.8 -1.8,4.6 -3.8,9.2 -5.8,13.7 -0.7,1.5 -1.7,2.8 -2.8,4 -1.3,1.5 -3.1,2.2 -5.1,1.9 -3.3,-0.4 -6.5,-0.8 -9.8,-1.2 -2.9,-0.3 -4.8,-2 -5.5,-4.7 -1.2,-4 -1,-7.9 0.6,-11.8 8.66428,-22.3976 16.74094,-43.54076 25.5,-64.299997 2.7,-6.3 5.8,-12.4 8.4,-18.7 6.34107,-16.16349 12.29066,-34.58188 11.5,-50.7 -3.81736,-7.67809 -8.82172,-9.42411 -16.2,-4.6 -4.1,3 -8.6,5.8 -11.6,10.3 -1.7,2.6 -3.9,4.7 -7.1,5.1 -2.9,-2 -2.9,-2 -4,-5.7 z"
     id="path31"
     inkscape:connector-curvature="0"
     sodipodi:nodetypes="cccccccccccccccccccccccccssssssccscccccccccccccccccccc" /><path
     d="m 583.55317,125.12287 c -4.9,2.3 -9.8,4.7 -14.7,6.9 -19.52598,7.94683 -30.97546,3.06092 -42.3,-1.8 -1.9,-1 -3.5,-2.5 -2.9,-5.4 2.2,-2.2 5,-1.7 7.7,-0.9 3.4,1 6.7,2.1 10.1,3.4 6.7,2.4 13.5,2.3 20.1,0 9.6,-3.4 18.5,-8.2 26.7,-14.3 4,-2.9 8.1,-5.7 12.3,-8.3 4,-2.5 8.4,-3.1 12.9,-2.3 3.2,0.6 5.7,2.2 6.8,5.5 0.6,1.7 0.5,3.3 -1.2,4.4 -1.9,1 -3.6,0.2 -5.4,-0.5 -12.39633,-2.58515 -20.79955,8.81701 -30.1,13.3 z"
     id="path4215"
     inkscape:connector-curvature="0" /><path
     d="m 586.78347,151.8105 c -1.02741,0.62862 -3.57147,-1.27427 -3.3118,-5.14776 0.25968,-3.87349 13.32257,-15.19152 9.59333,-5.30974 -3.7293,9.88166 -4.21396,9.08 -6.28146,10.45764 z"
     id="path4213"
     inkscape:connector-curvature="0"
     sodipodi:nodetypes="czzc" /><path
     d="m 556.65317,142.02287 c 0.25898,-4.0228 4.36636,-0.96417 7.86636,-1.26417 5.9,-0.4 8.72291,-3.42907 17.43364,-9.43583 10.2673,-7.08014 14.12103,-11.76214 24.3,-14.29997 10.17897,-2.53783 15.7,6.7 14.7,14.6 -1,7.7 -12.5,13.5 -19.3,9.9 -4.04828,-2.35014 -6.80714,-6.80037 -4.28995,-10.11353 1.66637,-2.05722 5.94193,-1.6353 8.59337,-0.63476 2.65144,1.00052 2.79658,3.84826 5.39658,3.64826 0.2,-6.6 -0.58473,-8.26985 -4.44238,-9.42715 -3.85765,-1.1573 -9.02576,0.73165 -11.55206,2.82617 -5.02946,4.16984 -10.49522,9.04142 -20.16695,16.68149 -10.68291,8.43885 -18.86948,2.65911 -18.53861,-2.48051 z"
     id="path33"
     inkscape:connector-curvature="0"
     sodipodi:nodetypes="scszcccscssss" /><path
     d="m 553.63251,46.847453 c -0.14394,-1.72734 -2.34284,-4.41128 -1.91153,-7.64612 0.4313,-3.23486 4.50546,-4.64233 7.2365,-4.23268 2.73106,0.40966 2.5311,5.02535 0.40962,7.98747 -2.12147,2.96211 -5.59064,5.61867 -5.73459,3.89133 z"
     id="path4221"
     inkscape:connector-curvature="0"
     sodipodi:nodetypes="zzzzz" /><path
     d="m 576.85317,35.122873 c 0.7,0.3 1.1,1.4 1.4,1.9 -0.1,2.8 -1.8,4.2 -3.2,5.7 -2.3,2.6 -4.6,5.3 -6.9,8 -8.1,9.3 -18.3,14.2 -30.6,12.7 -12.1,-1.5 -18.4,-9.2 -18.7,-21.1 -0.1,-4 2,-7.3 5.7,-9.1 2.1,-1 4.4,-1.7 6.7,-2 6.4,-0.6 11.3,6.5 8.7,12.6 -1,2.3 -3,2.8 -6.8,1.4 -0.1,-1.7 0.21687,-4.31952 -0.4,-5.8 -0.61687,-1.48048 -2,-0.5 -2.5,-0.1 -2.24124,2.00083 -1.98526,4.50371 -0.9,6.9 4.2,8.5 14.78318,13.71901 27.68318,4.06901 10.19811,-6.51894 13.23887,-17.71988 19.81682,-15.16901 z"
     id="path35"
     inkscape:connector-curvature="0"
     sodipodi:nodetypes="ccccccccccscccc" /><path
     d="m 607.05317,46.122873 c -13.65412,-3.73318 -19.92975,4.30024 -29.3,14 -6.6,6.7 -14.3,11.5 -22.5,15.7 -10.8,5.5 -21,3.4 -30.4,-3.5 -2.4,-1.8 -4.4,-4.2 -6.5,-6.5 -1.1,-1.3 -1.7,-2.8 -0.6,-5.1 0.8,-0.1 2,-0.7 2.9,-0.3 1.9,0.9 3.7,2.1 5.3,3.4 6.73423,7.26474 12.15688,7.90054 21.6,6.7 13.6973,-3.77493 24.6699,-16.70564 33.9,-25.6 3.1,-3 6.7,-5.3 10.5,-7 4.2,-1.9 8.8,-1.7 13.1,0.1 3,1.2 3.6,3.4 2,8.1 z"
     id="path37"
     inkscape:connector-curvature="0"
     sodipodi:nodetypes="ccccccccccccc" /><path
     d="m 591.55252,99.268953 c -5.38922,-8.48575 -7.65943,-16.05293 -10.24085,-25.92031 0.1,-0.3 0.1,-0.6 0.3,-0.7 3.8,-3.4 11.5,-6.7 15.8,-6.8 7.8,-0.2 11.9,2.8 14.4,10.9 1.3,4.2 0.9,8.4 -1.1,12.4 -1.3,2.6 -3,4.7 -5.8,5.9 -2.3,0.9 -10.95915,3.12031 -13.35915,4.22031 z m 5.97438,-9.28477 c 1.2,-0.2 4.69315,-2.23554 5.09315,-2.63554 4,-3.5 0.89162,-11.5 -2.80838,-15.4 -2.45703,-2.54403 -9.22258,0.10051 -9.29315,2.6 0.3,4.5 4.20838,11.13554 7.00838,15.43554 z"
     id="path39"
     inkscape:connector-curvature="0"
     sodipodi:nodetypes="cccccsccccccc" /><path
     d="m 551.91167,117.85343 c -5.5,0.8 -6.8,-3.45762 -8.8,-6.35762 -2.9,-0.7 -5.8,-1.6 -9.3,-0.8 -1.1,1.2 -3.06269,3.97285 -4.36269,5.27285 -2.67821,1.05675 -5.02801,-1.06966 -6.43731,-3.37285 2.5,-5.9 6.37285,-10.32715 8.97285,-16.027147 2.69517,-6.03151 7.49915,-10.39694 10.34923,-11.7 3.78688,3.72583 5.00716,10.72762 6.21192,17.576377 3.20293,11.38342 5.0673,12.27463 3.366,15.40839 z m -11.1,-22.808387 c -2.2,1.9 -5.70838,7.696457 -2.11523,7.865997 6.42361,2.09823 3.11523,-6.165997 2.11523,-7.865997 z"
     id="path41"
     inkscape:connector-curvature="0"
     sodipodi:nodetypes="cccccccccccc" /><path
     d="m 566.3684,111.59901 c -1.98477,1.80685 -2.74746,3.1797 -6.16954,3.2 -4.5693,-8.49805 -4.89118,-18.322397 -4.84569,-27.293147 1.1,-2.6 2.4,-3.5 4.2,-3.6 1.7,-0.2 3.3,0.1 4.6,1.3 1.4,1.3 7.8863,8.70153 8.9863,9.70153 0.65481,-4.20263 -3.23288,-9.53026 -2.6863,-13.60153 0.5,-3.5 2.2,-4.4 6.7,-3.7 1.98285,5.98008 7.19573,25.529207 6.52362,28.093147 -2.8,2.5 -8.75078,0.017 -11.45078,-1.88299 -1.9,-1.3 -6.65076,-4.830467 -8.15076,-6.030467 -1.7,0 -0.52208,2.12031 -0.42208,3.120307 0.7,2.5 2.11523,7.59315 2.71523,10.69315 z"
     id="path43"
     inkscape:connector-curvature="0"
     sodipodi:nodetypes="ccccccccccccc" /></svg>